<svg xmlns="http://www.w3.org/2000/svg" viewBox="0 0 50 50"><defs><style>.cls-1{fill:none;stroke:#000;stroke-miterlimit:10;}.cls-2{fill:#0f0f0f;fill-rule:evenodd;}</style></defs><g id="Layer_4" data-name="Layer 4"><circle class="cls-1" cx="25" cy="25" r="24"/><path class="cls-2" d="M24.55,9.87a1.38,1.38,0,0,1,1.38,1.38v1.42a39.93,39.93,0,0,1,4.83.67l.93.18c.56.11,1.06.21,1.54.29a10.39,10.39,0,0,0,1.67.2,3.76,3.76,0,0,0,1.82-.51,3.83,3.83,0,0,0,.66-.48,1.38,1.38,0,0,1,1.94,2,2.74,2.74,0,0,1-.36.32,6.21,6.21,0,0,1-.88.6,6.71,6.71,0,0,1-1.28.56l3.75,9.64a5,5,0,0,1,.25,3.41A5.39,5.39,0,0,1,39,32a6.45,6.45,0,0,1-4.14,1.28A6.45,6.45,0,0,1,30.76,32,5.39,5.39,0,0,1,29,29.51a5,5,0,0,1,.25-3.41L33,16.57l-1.83-.35-.89-.17a36.36,36.36,0,0,0-4.31-.61v22h5.52a1.38,1.38,0,0,1,0,2.76H17.66a1.38,1.38,0,0,1,0-2.76h5.51v-22a36.65,36.65,0,0,0-4.31.61l-.88.17-1.84.35,3.71,9.53a5,5,0,0,1,.25,3.41A5.29,5.29,0,0,1,18.35,32a6.45,6.45,0,0,1-4.14,1.28A6.5,6.5,0,0,1,10.06,32a5.44,5.44,0,0,1-1.75-2.53,5,5,0,0,1,.25-3.41l3.75-9.64A6.83,6.83,0,0,1,11,15.9a7.66,7.66,0,0,1-.88-.6L9.78,15a1.38,1.38,0,0,1,0-2,1.39,1.39,0,0,1,2,0,3.14,3.14,0,0,0,.66.48,3.72,3.72,0,0,0,1.82.51,10.52,10.52,0,0,0,1.67-.2l1.53-.29.94-.18a40,40,0,0,1,4.82-.67V11.25A1.38,1.38,0,0,1,24.55,9.87ZM14.21,19.19l-2.82,7.23H17ZM11.78,29.88a2.31,2.31,0,0,1-.6-.7h6.06a2.5,2.5,0,0,1-.61.7,3.7,3.7,0,0,1-2.42.68A3.71,3.71,0,0,1,11.78,29.88Zm20.31-3.46,2.81-7.23,2.81,7.23Zm-.22,2.76a2.46,2.46,0,0,0,.6.7,3.75,3.75,0,0,0,2.43.68,3.75,3.75,0,0,0,2.43-.68,2.46,2.46,0,0,0,.6-.7Z"/></g></svg>